<svg preserveAspectRatio="none" width="100%" height="100%" overflow="visible" style="display: block;" viewBox="0 0 66.0292 54.9127" fill="none" xmlns="http://www.w3.org/2000/svg">
<g id="Group 2131339133">
<path id="Vector 234251780" d="M2.50809 20.9435C2.66041 21.7578 3.44401 22.2944 4.25832 22.1421L17.5281 19.6599C18.3425 19.5075 18.8791 18.7239 18.7268 17.9096C18.5744 17.0953 17.7908 16.5587 16.9765 16.711L5.18113 18.9174L2.97469 7.12204C2.82237 6.30773 2.03877 5.77109 1.22446 5.92342C0.410161 6.07574 -0.12648 6.85934 0.0258427 7.67365L2.50809 20.9435ZM62.0461 10.2451C62.9526 9.04996 62.9519 9.04941 62.951 9.04876C62.9505 9.04841 62.9496 9.04766 62.9486 9.04697C62.9468 9.04559 62.9445 9.04382 62.9416 9.04168C62.9359 9.03738 62.9282 9.03157 62.9184 9.02429C62.8989 9.00972 62.8712 8.98925 62.8357 8.9632C62.7646 8.91112 62.6618 8.83673 62.5285 8.74272C62.2621 8.55471 61.8738 8.28802 61.3739 7.96402C60.3747 7.31633 58.9272 6.43784 57.1147 5.50056C53.4968 3.6296 48.3871 1.50477 42.4622 0.534345C36.5282 -0.437558 29.7505 -0.254745 22.8504 2.5259C15.9435 5.30927 9.02388 10.6516 2.74491 19.8201L3.98251 20.6677L5.22011 21.5152C11.215 12.7615 17.6903 7.83975 23.9717 5.30845C30.2598 2.77442 36.4638 2.59187 41.9773 3.4949C47.4997 4.3994 52.3033 6.38979 55.7367 8.16533C57.4499 9.05129 58.8125 9.87886 59.7421 10.4814C60.2067 10.7825 60.5624 11.027 60.7989 11.1939C60.9171 11.2773 61.0055 11.3413 61.0627 11.3833C61.0914 11.4042 61.1122 11.4197 61.125 11.4293C61.1315 11.4341 61.1359 11.4374 61.1384 11.4392C61.1396 11.4401 61.1403 11.4407 61.1405 11.4408C61.1406 11.4409 61.1404 11.4407 61.1404 11.4408C61.1401 11.4405 61.1396 11.4402 62.0461 10.2451Z" fill="var(--stroke-0, #FFB387)"/>
<path id="Vector 234251781" d="M63.5211 33.9693C63.3688 33.1549 62.5852 32.6183 61.7709 32.7706L48.5011 35.2529C47.6868 35.4052 47.1501 36.1888 47.3025 37.0031C47.4548 37.8174 48.2384 38.354 49.0527 38.2017L60.8481 35.9953L63.0545 47.7907C63.2069 48.605 63.9905 49.1416 64.8048 48.9893C65.6191 48.837 66.1557 48.0534 66.0034 47.2391L63.5211 33.9693ZM3.98312 44.6677C3.07663 45.8628 3.07736 45.8633 3.07822 45.864C3.07867 45.8643 3.07966 45.8651 3.08058 45.8658C3.08241 45.8671 3.08475 45.8689 3.08761 45.8711C3.09331 45.8753 3.10106 45.8812 3.11083 45.8884C3.13037 45.903 3.15799 45.9235 3.19354 45.9495C3.26464 46.0016 3.36746 46.076 3.50069 46.17C3.76713 46.358 4.15547 46.6247 4.65531 46.9487C5.65451 47.5964 7.10206 48.4749 8.91451 49.4122C12.5324 51.2831 17.6421 53.408 23.5671 54.3784C29.5011 55.3503 36.2788 55.1675 43.1789 52.3868C50.0858 49.6035 57.0053 44.2612 63.2843 35.0926L62.0467 34.2451L60.8091 33.3975C54.8142 42.1513 48.3389 47.073 42.0575 49.6043C35.7694 52.1383 29.5654 52.3209 24.052 51.4178C18.5295 50.5133 13.726 48.5229 10.2926 46.7474C8.57934 45.8614 7.21668 45.0339 6.28709 44.4313C5.82254 44.1302 5.46684 43.8857 5.23033 43.7188C5.1121 43.6354 5.02372 43.5714 4.96649 43.5295C4.93787 43.5085 4.91705 43.4931 4.90418 43.4835C4.89775 43.4787 4.89331 43.4753 4.89087 43.4735C4.88965 43.4726 4.88894 43.4721 4.88873 43.4719C4.88862 43.4718 4.88885 43.472 4.88879 43.4719C4.88914 43.4722 4.88962 43.4726 3.98312 44.6677Z" fill="var(--stroke-0, #FFB387)"/>
</g>
</svg>
