<svg width="376" height="89" viewBox="0 0 376 89" fill="none" xmlns="http://www.w3.org/2000/svg">
<path d="M201.43 45.8651C198.279 51.8744 190.643 62.7135 190.643 62.7135C185.624 59.7746 175.894 54.7756 171.635 48.8816C164.464 40.1798 176.797 31.2905 184.31 39.8045C184.31 39.8045 182.79 35.8768 172.916 33.6696C163.042 31.4624 137.671 34.2017 132.13 34.8591M201.43 45.8651C201.996 44.7854 202.417 43.8617 202.623 43.1847C203.977 38.7395 202.999 33.1782 196.956 31.2905C192.646 29.9446 187.878 33.6694 187.878 37.4256C187.878 43.7677 192.983 47.8667 201.43 45.8651ZM201.43 45.8651C208.829 44.1116 218.793 37.6764 230.135 23.9661M132.068 34.8591L129.433 25.3665C128.601 22.3698 130.191 19.2311 133.146 18.2597C145.992 14.0353 165.023 9.42572 176.134 7.22486C187.327 5.0076 206.884 1.98589 220.382 1.0165C223.357 0.80289 225.952 2.91667 226.474 5.85271L227.881 13.7619C229.306 19.1892 261.054 34.5021 296.369 35.9233C326.23 37.1251 358.936 26.958 374.998 7.22486M230.135 23.9035L238.053 63.797C238.776 67.4406 236.055 70.8765 232.353 71.1806C218.973 72.2797 200.682 75.1272 190.004 77.2425C177.273 79.7643 166.656 82.321 152.883 86.3275L149.338 87.5352C145.57 88.819 141.588 86.1605 141.213 82.1971C140.755 77.3601 140.011 70.8926 138.875 64.524M138.875 64.524C139.915 62.5627 140.652 60.3921 141.239 58.0221C144.034 46.7344 131.459 38.5989 135.73 51.4488C137.013 55.311 138.048 59.8913 138.875 64.524ZM138.875 64.524C134.96 71.904 126.747 76.3202 106.056 77.2425C73.5053 78.6936 27.6446 57.179 1.00165 34.699" stroke="#362C26" stroke-width="2" stroke-linecap="round" stroke-linejoin="round"/>
</svg>
