<svg width="36" height="35" viewBox="0 0 36 35" fill="none" xmlns="http://www.w3.org/2000/svg">
<g clip-path="url(#clip0_2019_17215)">
<g clip-path="url(#clip1_2019_17215)">
<path fill-rule="evenodd" clip-rule="evenodd" d="M15.8078 3.22418C13.8596 3.22435 11.9397 3.6904 10.2083 4.58346C8.47689 5.47652 6.98414 6.77069 5.8546 8.358C4.72506 9.9453 3.99148 11.7797 3.71508 13.7082C3.43868 15.6367 3.62746 17.6033 4.26568 19.4439C4.9039 21.2846 5.97305 22.946 7.38393 24.2894C8.7948 25.6328 10.5065 26.6194 12.3762 27.1668C14.2459 27.7141 16.2194 27.8065 18.132 27.436C20.0447 27.0656 21.841 26.2431 23.3711 25.0372L28.6202 30.2864C28.8913 30.5482 29.2544 30.6931 29.6313 30.6898C30.0081 30.6865 30.3686 30.5354 30.6351 30.2689C30.9016 30.0024 31.0528 29.6419 31.0561 29.265C31.0593 28.8881 30.9145 28.5251 30.6526 28.254L25.4035 23.0048C26.8236 21.2033 27.7078 19.0383 27.9549 16.7578C28.202 14.4772 27.8021 12.1731 26.8009 10.1092C25.7997 8.04525 24.2376 6.30491 22.2935 5.0873C20.3494 3.8697 18.1018 3.22403 15.8078 3.22418ZM6.46513 15.4415C6.46513 12.9637 7.44944 10.5874 9.20154 8.83527C10.9536 7.08317 13.33 6.09886 15.8078 6.09886C18.2857 6.09886 20.662 7.08317 22.4141 8.83527C24.1662 10.5874 25.1505 12.9637 25.1505 15.4415C25.1505 17.9194 24.1662 20.2957 22.4141 22.0478C20.662 23.7999 18.2857 24.7842 15.8078 24.7842C13.33 24.7842 10.9536 23.7999 9.20154 22.0478C7.44944 20.2957 6.46513 17.9194 6.46513 15.4415Z" fill="black"/>
</g>
</g>
<defs>
<clipPath id="clip0_2019_17215">
<rect width="34.4961" height="34.4961" fill="white" transform="translate(0.715515 0.0662231)"/>
</clipPath>
<clipPath id="clip1_2019_17215">
<rect width="34.4961" height="34.4961" fill="white" transform="translate(0.715515 0.0662231)"/>
</clipPath>
</defs>
</svg>
