<svg width="194" height="220" viewBox="0 0 194 220" fill="none" xmlns="http://www.w3.org/2000/svg">
<path d="M40.8426 17.9298L23.8436 9.49316" stroke="black" stroke-width="2.15054"/>
<path d="M39.1351 26.5796L23.4474 23.2573" stroke="black" stroke-width="2.15054"/>
<path fill-rule="evenodd" clip-rule="evenodd" d="M93.2129 74.2088C104.995 70.262 108.627 61.7646 101.873 37.4959C94.7419 11.8692 62.1893 3.38627 60.6926 45.9883C60.347 55.8243 69.6545 68.1269 79.5932 73.0578L80.5036 84.0043L93.3251 83.4946L93.2129 74.2088Z" fill="white"/>
<path d="M93.2129 74.2088L92.8709 73.1902L92.1274 73.4393L92.1369 74.2221L93.2129 74.2088ZM101.873 37.4959L102.91 37.208V37.208L101.873 37.4959ZM60.6926 45.9883L61.768 46.0257L61.768 46.0257L60.6926 45.9883ZM79.5932 73.0578L80.6656 72.9686L80.6154 72.365L80.0722 72.0956L79.5932 73.0578ZM80.5036 84.0043L79.4312 84.0934L79.5164 85.1188L80.5461 85.0778L80.5036 84.0043ZM93.3251 83.4946L93.3676 84.5681L94.4137 84.5265L94.4011 83.4813L93.3251 83.4946ZM93.2129 74.2088L93.555 75.2275C96.5896 74.2109 99.1753 72.8769 101.213 71.0122C103.264 69.136 104.714 66.7646 105.533 63.7543C107.151 57.8031 106.294 49.3671 102.91 37.208L101.873 37.4959L100.837 37.7838C104.207 49.8934 104.911 57.8405 103.456 63.1918C102.738 65.8328 101.493 67.8425 99.7597 69.4281C98.0141 71.0251 95.7275 72.2333 92.8709 73.1902L93.2129 74.2088ZM101.873 37.4959L102.91 37.208C99.2623 24.0992 89.0261 15.0806 79.1701 15.0819C74.1876 15.0826 69.4364 17.4057 65.8751 22.4675C62.3387 27.494 59.9955 35.1818 59.6171 45.9509L60.6926 45.9883L61.768 46.0257C62.138 35.4938 64.4252 28.2662 67.6361 23.7023C70.8223 19.1737 74.9357 17.2313 79.1698 17.2308C87.7473 17.2297 97.3531 25.266 100.837 37.7838L101.873 37.4959ZM60.6926 45.9883L59.6171 45.9509C59.4329 51.1947 61.8096 56.9611 65.411 61.9877C69.0227 67.0289 73.9631 71.4645 79.1141 74.02L79.5932 73.0578L80.0722 72.0956C75.2845 69.7203 70.6019 65.5391 67.1616 60.7372C63.7109 55.9208 61.6067 50.6179 61.768 46.0257L60.6926 45.9883ZM79.5932 73.0578L78.5208 73.1469L79.4312 84.0934L80.5036 84.0043L81.576 83.9151L80.6656 72.9686L79.5932 73.0578ZM80.5036 84.0043L80.5461 85.0778L93.3676 84.5681L93.3251 83.4946L93.2825 82.421L80.4611 82.9307L80.5036 84.0043ZM93.3251 83.4946L94.4011 83.4813L94.2889 74.1956L93.2129 74.2088L92.1369 74.2221L92.249 83.5078L93.3251 83.4946Z" fill="black"/>
<ellipse cx="2.16909" cy="2.16669" rx="2.16909" ry="2.16669" transform="matrix(0.9185 0.395421 -0.396499 0.918035 81.6663 35.7571)" fill="black"/>
<path d="M89.9999 32.75C86.1151 32.445 76.1953 30.0682 74.3297 37.1326" stroke="black" stroke-width="2.15054"/>
<path d="M53.8721 42.7134C55.641 37.6161 62.3809 37.8356 64.4582 41.852C65.4182 43.708 64.2384 47.0402 64.9026 48.8304C65.6757 50.9141 66.0169 52.829 65.3874 54.2862C63.9246 57.6724 51.661 49.0849 53.8721 42.7134Z" fill="white" stroke="black" stroke-width="2.15054"/>
<path d="M60.6109 45.3252C61.7201 42.136 65.9003 42.2566 67.1794 44.761C67.7705 45.9184 67.0308 48.0033 67.4386 49.1202C67.9133 50.4202 68.1204 51.6159 67.7266 52.5279C66.8112 54.6473 59.2245 49.3117 60.6109 45.3252Z" fill="white"/>
<path d="M64.5757 47.9722C63.7685 48.0178 60.2986 49.6693 61.2552 46.5427C62.2118 43.4161 60.317 41.4209 58.4617 42.9811" stroke="black" stroke-width="2.15054"/>
<path fill-rule="evenodd" clip-rule="evenodd" d="M80.511 83.0207C86.4725 82.9302 104.458 82.8763 107.59 85.4346C116.189 92.4593 129.556 84.5079 138.001 79.4849C144.961 75.3447 148.576 73.194 143.421 83.0584C143.421 83.0584 155.598 88.5186 145.324 103.714C138.939 113.158 128.67 111.869 120.1 110.794C114.879 110.139 110.289 109.562 107.59 111.539C107.093 115.69 104.905 123.378 101.779 132.739L128.202 194.508L108.035 200.967L90.764 162.893C85.9731 175.171 80.9168 187.279 76.6902 196.51H74.8634C72.9573 195.899 71.2743 195.375 69.765 194.906C60.6756 192.077 57.8824 191.207 50.5441 185.102C54.6553 176.569 68.1365 154.725 68.1365 154.725L72.8417 122.473C68.3226 111.461 63.3797 105.842 63.3797 105.842C63.3797 105.842 42.4626 111.284 46.392 131.066C39.2313 131.781 35.2841 134.394 32.6714 136.124C31.1213 137.151 30.0409 137.866 29.0378 137.69C29.0378 137.69 25.3918 127.798 26.225 118.909C27.0582 110.02 29.0796 94.818 46.1934 89.5972C63.3073 84.3764 71.9279 83.0092 80.5061 83.0092L80.511 83.0207Z" fill="white"/>
<path d="M107.59 85.4346L108.27 84.6019V84.6019L107.59 85.4346ZM80.511 83.0207L79.5224 83.4437L79.8062 84.1068L80.5273 84.0958L80.511 83.0207ZM138.001 79.4849L137.451 78.5608V78.5608L138.001 79.4849ZM143.421 83.0584L142.468 82.5604L141.94 83.5724L142.981 84.0396L143.421 83.0584ZM145.324 103.714L144.433 103.112V103.112L145.324 103.714ZM120.1 110.794L120.234 109.727V109.727L120.1 110.794ZM107.59 111.539L106.955 110.671L106.578 110.947L106.522 111.411L107.59 111.539ZM101.779 132.739L100.759 132.398L100.629 132.786L100.79 133.161L101.779 132.739ZM128.202 194.508L128.53 195.532L129.655 195.172L129.19 194.085L128.202 194.508ZM108.035 200.967L107.055 201.411L107.451 202.283L108.363 201.991L108.035 200.967ZM90.764 162.893L91.7433 162.448L90.6896 160.125L89.7623 162.502L90.764 162.893ZM76.6902 196.51V197.585H77.3805L77.6679 196.957L76.6902 196.51ZM74.8634 196.51L74.5353 197.534L74.6954 197.585H74.8634V196.51ZM69.765 194.906L69.4455 195.932V195.932L69.765 194.906ZM50.5441 185.102L49.5754 184.636L49.211 185.392L49.8565 185.929L50.5441 185.102ZM68.1365 154.725L69.0515 155.29L69.1684 155.101L69.2005 154.881L68.1365 154.725ZM72.8417 122.473L73.9057 122.628L73.9482 122.337L73.8365 122.065L72.8417 122.473ZM63.3797 105.842L64.1871 105.132L63.7498 104.634L63.109 104.801L63.3797 105.842ZM46.392 131.066L46.4989 132.136L47.6775 132.018L47.4467 130.856L46.392 131.066ZM32.6714 136.124L32.0777 135.228L32.0777 135.228L32.6714 136.124ZM29.0378 137.69L28.0288 138.061L28.2426 138.641L28.8512 138.749L29.0378 137.69ZM26.225 118.909L27.2956 119.009V119.009L26.225 118.909ZM46.1934 89.5972L45.8797 88.5687V88.5687L46.1934 89.5972ZM80.5061 83.0092L81.4947 82.5862L81.2156 81.934H80.5061V83.0092ZM107.59 85.4346L108.27 84.6019C107.713 84.1467 106.926 83.8187 106.083 83.5635C105.216 83.301 104.181 83.0844 103.045 82.9035C100.771 82.5416 97.9998 82.3088 95.1677 82.1605C89.4984 81.8636 83.4833 81.9002 80.4947 81.9455L80.511 83.0207L80.5273 84.0958C83.5003 84.0507 89.4585 84.015 95.0552 84.3081C97.8562 84.4548 100.541 84.6827 102.707 85.0273C103.79 85.1998 104.721 85.398 105.46 85.6218C106.224 85.853 106.684 86.083 106.91 86.2674L107.59 85.4346ZM138.001 79.4849L137.451 78.5608C133.209 81.0842 127.862 84.2591 122.528 85.9528C117.185 87.6496 112.149 87.7703 108.27 84.6019L107.59 85.4346L106.91 86.2674C111.63 90.1237 117.578 89.7811 123.179 88.0025C128.789 86.221 134.348 82.9086 138.55 80.409L138.001 79.4849ZM143.421 83.0584L144.374 83.5564C145.665 81.0873 146.461 79.2721 146.772 78.0144C146.922 77.405 147.003 76.7636 146.839 76.2001C146.75 75.8932 146.582 75.5921 146.306 75.355C146.032 75.12 145.716 75.0042 145.421 74.9577C144.876 74.8718 144.295 75.0067 143.791 75.1758C143.258 75.3548 142.66 75.6262 142.021 75.9512C140.745 76.6006 139.179 77.5326 137.451 78.5608L138.001 79.4849L138.55 80.409C140.302 79.3671 141.798 78.4777 142.997 77.8677C143.595 77.563 144.087 77.3451 144.476 77.2146C144.669 77.1498 144.819 77.1125 144.931 77.0945C145.047 77.076 145.092 77.0829 145.087 77.0821C145.074 77.0801 144.994 77.0635 144.905 76.9873C144.814 76.9089 144.781 76.8261 144.774 76.8021C144.771 76.7889 144.785 76.8307 144.777 76.9592C144.769 77.0843 144.743 77.2605 144.684 77.4981C144.441 78.4822 143.756 80.0973 142.468 82.5604L143.421 83.0584ZM145.324 103.714L146.215 104.317C151.513 96.4806 151.17 90.8839 149.172 87.1778C148.2 85.3745 146.88 84.1073 145.816 83.2945C145.282 82.8866 144.806 82.5882 144.458 82.3894C144.284 82.2898 144.142 82.2149 144.04 82.1633C143.989 82.1375 143.947 82.1176 143.917 82.1033C143.902 82.0961 143.89 82.0904 143.881 82.0861C143.876 82.0839 143.872 82.0821 143.869 82.0806C143.867 82.0799 143.866 82.0793 143.864 82.0787C143.864 82.0784 143.863 82.0781 143.863 82.0779C143.862 82.0776 143.861 82.0773 143.421 83.0584C142.981 84.0396 142.981 84.0393 142.98 84.039C142.98 84.039 142.98 84.0387 142.979 84.0386C142.979 84.0384 142.979 84.0383 142.978 84.0382C142.978 84.0381 142.979 84.0383 142.98 84.0388C142.982 84.0398 142.987 84.0421 142.995 84.0458C143.01 84.0531 143.036 84.0657 143.071 84.0836C143.143 84.1194 143.252 84.1766 143.391 84.2561C143.669 84.4152 144.064 84.662 144.511 85.0035C145.409 85.6894 146.491 86.7369 147.279 88.1982C148.801 91.0212 149.409 95.7524 144.433 103.112L145.324 103.714ZM120.1 110.794L119.966 111.861C124.221 112.395 129.088 113.013 133.705 112.26C138.384 111.497 142.83 109.322 146.215 104.317L145.324 103.714L144.433 103.112C141.433 107.55 137.552 109.453 133.358 110.138C129.101 110.832 124.549 110.268 120.234 109.727L120.1 110.794ZM107.59 111.539L108.225 112.406C109.303 111.617 110.851 111.275 112.91 111.255C114.96 111.234 117.335 111.53 119.966 111.861L120.1 110.794L120.234 109.727C117.644 109.402 115.114 109.082 112.889 109.104C110.672 109.126 108.576 109.484 106.955 110.671L107.59 111.539ZM101.779 132.739L102.799 133.079C105.92 123.734 108.146 115.943 108.657 111.666L107.59 111.539L106.522 111.411C106.041 115.436 103.89 123.023 100.759 132.398L101.779 132.739ZM128.202 194.508L129.19 194.085L102.767 132.316L101.779 132.739L100.79 133.161L127.213 194.931L128.202 194.508ZM108.035 200.967L108.363 201.991L128.53 195.532L128.202 194.508L127.874 193.484L107.707 199.943L108.035 200.967ZM90.764 162.893L89.7848 163.337L107.055 201.411L108.035 200.967L109.014 200.522L91.7433 162.448L90.764 162.893ZM76.6902 196.51L77.6679 196.957C81.9055 187.703 86.9699 175.575 91.7658 163.283L90.764 162.893L89.7623 162.502C84.9764 174.767 79.9282 186.855 75.7126 196.062L76.6902 196.51ZM74.8634 196.51V197.585H76.6902V196.51V195.435H74.8634V196.51ZM69.765 194.906L69.4455 195.932C70.955 196.402 72.634 196.925 74.5353 197.534L74.8634 196.51L75.1915 195.486C73.2806 194.874 71.5937 194.349 70.0846 193.879L69.765 194.906ZM50.5441 185.102L49.8565 185.929C53.5575 189.008 56.1663 190.812 59.0288 192.2C61.8682 193.576 64.9239 194.525 69.4455 195.932L69.765 194.906L70.0846 193.879C65.5167 192.457 62.6312 191.556 59.967 190.265C57.326 188.984 54.869 187.302 51.2318 184.276L50.5441 185.102ZM68.1365 154.725C67.2215 154.161 67.2214 154.161 67.2213 154.161C67.2212 154.161 67.221 154.161 67.2208 154.162C67.2204 154.162 67.2198 154.163 67.2189 154.165C67.2173 154.167 67.2148 154.171 67.2115 154.177C67.205 154.187 67.1952 154.203 67.1823 154.224C67.1566 154.266 67.1183 154.328 67.0683 154.409C66.9684 154.572 66.8213 154.811 66.6327 155.118C66.2555 155.733 65.7122 156.621 65.0474 157.713C63.718 159.896 61.9024 162.896 59.958 166.164C56.079 172.683 51.6553 180.319 49.5754 184.636L50.5441 185.102L51.5128 185.569C53.5442 181.353 57.9166 173.8 61.8061 167.264C63.7458 164.004 65.5574 161.01 66.8842 158.831C67.5476 157.741 68.0896 156.856 68.4657 156.243C68.6538 155.936 68.8003 155.698 68.8998 155.536C68.9496 155.455 68.9876 155.394 69.0131 155.352C69.0258 155.332 69.0355 155.316 69.0419 155.306C69.0451 155.3 69.0476 155.296 69.0492 155.294C69.05 155.293 69.0506 155.292 69.051 155.291C69.0512 155.291 69.0513 155.29 69.0514 155.29C69.0515 155.29 69.0515 155.29 68.1365 154.725ZM72.8417 122.473L71.7777 122.318L67.0725 154.57L68.1365 154.725L69.2005 154.881L73.9057 122.628L72.8417 122.473ZM63.3797 105.842C62.5723 106.552 62.5722 106.552 62.572 106.552C62.572 106.552 62.5719 106.551 62.5718 106.551C62.5718 106.551 62.5717 106.551 62.5718 106.551C62.5719 106.551 62.5723 106.552 62.5731 106.553C62.5745 106.554 62.5771 106.557 62.5809 106.562C62.5885 106.57 62.6007 106.585 62.6174 106.604C62.6508 106.644 62.7022 106.705 62.7703 106.787C62.9064 106.953 63.1092 107.206 63.3683 107.545C63.8863 108.223 64.6292 109.246 65.5134 110.612C67.2819 113.344 69.6152 117.443 71.8469 122.881L72.8417 122.473L73.8365 122.065C71.549 116.491 69.1514 112.275 67.3187 109.444C66.4023 108.028 65.627 106.959 65.0771 106.239C64.8021 105.879 64.5834 105.607 64.4316 105.422C64.3557 105.33 64.2965 105.259 64.2553 105.211C64.2347 105.187 64.2186 105.168 64.2072 105.155C64.2015 105.148 64.197 105.143 64.1936 105.139C64.1919 105.137 64.1905 105.135 64.1895 105.134C64.1889 105.134 64.1885 105.133 64.1881 105.133C64.1879 105.132 64.1876 105.132 64.1875 105.132C64.1873 105.132 64.1871 105.132 63.3797 105.842ZM46.392 131.066L47.4467 130.856C45.5775 121.446 49.5833 115.516 54.0887 111.871C56.3598 110.034 58.7593 108.782 60.5987 107.988C61.5162 107.593 62.2885 107.314 62.8276 107.135C63.097 107.045 63.3077 106.981 63.4486 106.939C63.5191 106.919 63.5721 106.904 63.6062 106.894C63.6232 106.89 63.6356 106.886 63.643 106.884C63.6467 106.883 63.6492 106.883 63.6505 106.882C63.6511 106.882 63.6514 106.882 63.6514 106.882C63.6514 106.882 63.6512 106.882 63.6512 106.882C63.6509 106.882 63.6505 106.882 63.3797 105.842C63.109 104.801 63.1084 104.801 63.1078 104.801C63.1075 104.801 63.1068 104.802 63.1061 104.802C63.1049 104.802 63.1033 104.803 63.1014 104.803C63.0976 104.804 63.0925 104.805 63.0862 104.807C63.0735 104.811 63.0559 104.815 63.0335 104.821C62.9887 104.834 62.9247 104.852 62.8429 104.876C62.6794 104.924 62.4445 104.996 62.1497 105.094C61.5602 105.29 60.7291 105.59 59.747 106.014C57.7872 106.859 55.203 108.204 52.7361 110.199C47.7652 114.221 43.2772 120.903 45.3374 131.275L46.392 131.066ZM32.6714 136.124L33.2651 137.021C35.8264 135.325 39.5977 132.825 46.4989 132.136L46.392 131.066L46.2852 129.996C38.8649 130.737 34.7419 133.464 32.0777 135.228L32.6714 136.124ZM29.0378 137.69L28.8512 138.749C29.6758 138.894 30.442 138.653 31.1177 138.326C31.7863 138.003 32.5108 137.52 33.2651 137.021L32.6714 136.124L32.0777 135.228C31.2818 135.755 30.6911 136.144 30.1812 136.39C29.6784 136.633 29.4029 136.662 29.2243 136.631L29.0378 137.69ZM26.225 118.909L25.1544 118.809C24.7226 123.415 25.4516 128.236 26.2699 131.869C26.6809 133.693 27.1183 135.235 27.4536 136.322C27.6213 136.866 27.7638 137.297 27.8649 137.594C27.9155 137.742 27.9558 137.857 27.9838 137.936C27.9977 137.976 28.0087 138.006 28.0163 138.027C28.0201 138.037 28.023 138.046 28.0251 138.051C28.0262 138.054 28.027 138.056 28.0277 138.058C28.028 138.059 28.0282 138.06 28.0284 138.06C28.0285 138.061 28.0286 138.061 28.0287 138.061C28.0288 138.061 28.0288 138.061 29.0378 137.69C30.0467 137.318 30.0467 137.318 30.0468 137.318C30.0468 137.318 30.0468 137.318 30.0468 137.318C30.0468 137.318 30.0467 137.318 30.0465 137.317C30.0463 137.317 30.0458 137.315 30.0451 137.313C30.0437 137.31 30.0415 137.303 30.0384 137.295C30.0322 137.278 30.0228 137.252 30.0103 137.216C29.9853 137.146 29.948 137.04 29.9005 136.9C29.8056 136.622 29.6697 136.21 29.5086 135.688C29.1864 134.643 28.7643 133.156 28.3679 131.396C27.5716 127.861 26.8941 123.292 27.2956 119.009L26.225 118.909ZM46.1934 89.5972L45.8797 88.5687C37.0126 91.2737 32.0072 96.5971 29.1399 102.401C26.2961 108.158 25.5718 114.356 25.1544 118.809L26.225 118.909L27.2956 119.009C27.7114 114.573 28.4144 108.726 31.068 103.354C33.6982 98.0296 38.2604 93.1415 46.5072 90.6257L46.1934 89.5972ZM80.5061 83.0092V81.934C71.7767 81.934 63.0407 83.3335 45.8797 88.5687L46.1934 89.5972L46.5072 90.6257C63.5738 85.4193 72.0792 84.0845 80.5061 84.0845V83.0092ZM80.511 83.0207L81.4996 82.5977L81.4947 82.5862L80.5061 83.0092L79.5175 83.4322L79.5224 83.4437L80.511 83.0207Z" fill="black"/>
<path d="M83.5181 147.781L90.3672 162.597" stroke="black" stroke-width="2.15054"/>
<rect x="0.191278" y="-1.50738" width="21.2828" height="181.484" transform="matrix(-0.613086 -0.790016 0.790974 -0.61185 29.776 171.949)" fill="#FFE350" stroke="black" stroke-width="2.15054"/>
<rect x="-1.50974" y="-0.191577" width="21.2828" height="6.64049" transform="matrix(-0.613086 -0.790016 -0.790974 0.61185 26.4604 172.361)" fill="white" stroke="black" stroke-width="2.15054"/>
<path d="M18.0772 182.117C16.0286 183.701 13.0807 183.327 11.4928 181.281L2.87638 170.178C1.28852 168.132 1.662 165.189 3.71059 163.604L8.49999 159.899L22.8666 178.412L18.0772 182.117Z" fill="black"/>
<path d="M159.437 44.3751L186.427 37.0732L172.47 61.4492" stroke="black" stroke-width="2.15054"/>
<path d="M186.817 36.7775L173.693 41.3746L179.679 49.0882L186.817 36.7775Z" fill="black"/>
<line y1="-1.07527" x2="182.658" y2="-1.07527" transform="matrix(0.790974 -0.61185 0.613086 0.790016 24.0868 168.831)" stroke="black" stroke-width="2.15054"/>
<line y1="-1.07527" x2="182.658" y2="-1.07527" transform="matrix(0.790974 -0.61185 0.613086 0.790016 19.2968 162.659)" stroke="black" stroke-width="2.15054"/>
<path d="M61.1034 143.451L55.2021 134.241L49.0459 140.697C49.0459 140.697 54.7269 148.48 59.9562 148.955C65.1855 149.431 61.1034 143.451 61.1034 143.451Z" fill="white" stroke="black" stroke-width="2.15054"/>
<path d="M57.6443 153.855C56.9653 146.152 56.3122 136.12 54.9072 133.642C52.8244 129.969 33.4905 127.59 30.4813 134.241C27.7678 140.238 30.397 146.502 34.2372 154.062C34.8275 155.224 36.4385 155.351 37.2132 154.301L40.4755 149.882L43.2819 155.893C43.9674 157.362 46.1092 157.199 46.5663 155.644L48.371 149.505L53.3766 155.671C54.5796 157.153 57.8118 155.756 57.6443 153.855Z" fill="white" stroke="black" stroke-width="2.15054"/>
<path d="M49.496 134.532C50.3091 135.549 51.5144 141.56 51.8273 141.823L59.2642 143.416C59.2642 143.416 56.6743 136.141 54.2508 133.768C51.8273 131.395 49.496 134.532 49.496 134.532Z" fill="white"/>
<path d="M140.88 71.6836C140.447 71.242 140.02 70.8065 139.602 70.3797C138.25 68.9973 135.138 70.552 135.519 72.4465L136.465 77.146L132.511 75.4498C131.001 74.8019 129.492 76.3663 130.197 77.8488L132.124 81.9006L128.208 81.6808C126.887 81.6067 125.941 82.9462 126.452 84.1641C129.161 90.6329 131.932 96.7481 138.711 97.2551C146.155 97.8118 153.396 88.8502 150.273 81.8866L146.889 72.3096C146.889 72.3096 145.249 66.6417 142.83 70.1679C142.347 70.872 142.038 71.7387 141.853 72.6752C141.526 72.3419 141.202 72.0111 140.88 71.6836Z" fill="white"/>
<path d="M141.853 72.6752C142.038 71.7387 142.347 70.872 142.83 70.1679C145.249 66.6417 146.889 72.3096 146.889 72.3096L150.273 81.8866C153.396 88.8502 146.155 97.8118 138.711 97.2551C131.932 96.7481 129.161 90.6329 126.452 84.1641C125.941 82.9462 126.887 81.6067 128.208 81.6808L132.124 81.9006L130.197 77.8488C129.492 76.3663 131.001 74.8019 132.511 75.4498L136.465 77.146L135.519 72.4465C135.138 70.552 138.25 68.9973 139.602 70.3797C140.02 70.8065 140.447 71.242 140.88 71.6836C141.202 72.0111 141.526 72.3419 141.853 72.6752ZM141.853 72.6752L145.036 77.0737" stroke="black" stroke-width="2.15054"/>
<path d="M93.5585 209.17C93.5585 209.17 96.8298 195.723 76.337 193.517L50.0547 180.936L43.2658 193.277L70.7478 208.219L93.5585 209.17Z" fill="black"/>
<path d="M51.4701 208.18L93.7011 208.18" stroke="black" stroke-width="2.15054"/>
<path d="M46.1896 208.18L34.3121 208.18" stroke="black" stroke-width="2.15054"/>
<path d="M151.109 199.616C151.109 199.616 145.83 183.146 128.014 193.028L104.922 194.185L105.733 208.241L136.968 206.332L151.109 199.616Z" fill="black"/>
<path d="M96.6974 56.8651C95.493 57.9053 91.2778 57.4244 89.5262 54.9407" stroke="black" stroke-width="2.15054"/>
<path d="M52.9205 44.1395C52.9205 44.1395 55.7728 33.6979 64.3358 41.7631L69.0891 26.104L92.8536 23.2563L105.218 9.01774H83.826L87.1537 0L70.5105 9.01774L71.9366 2.37309C71.9366 2.37309 56.7244 11.3908 51.4947 21.3578C46.2649 31.3248 52.9205 44.1395 52.9205 44.1395Z" fill="black"/>
<path d="M100.239 39.3438L95.963 33.4463L96.6213 45.0578L103.61 48.189C106.865 46.0846 108.373 43.1974 106.867 40.0082C105.663 37.4569 101.947 38.5022 100.239 39.3438Z" fill="white"/>
<path d="M95.963 33.4463L100.239 39.3438C101.947 38.5022 105.663 37.4569 106.867 40.0082C108.373 43.1974 106.865 46.0846 103.61 48.189" stroke="black" stroke-width="2.15054"/>
</svg>
